<svg xmlns="http://www.w3.org/2000/svg" viewBox="0 0 48 48" role="img" aria-label="Console Atlas compass logo">
  <defs>
    <linearGradient id="c" x1="0" x2="1" y1="0" y2="1">
      <stop stop-color="#9bc1ff"/><stop offset="1" stop-color="#4f79bb"/>
    </linearGradient>
  </defs>
  <path d="M38 10.5A19 19 0 1 0 38 37.5" fill="none" stroke="url(#c)" stroke-width="4.6" stroke-linecap="round"/>
  <circle cx="24" cy="24" r="14.5" fill="none" stroke="#718fbf" stroke-opacity=".38" stroke-width=".8"/>
  <path d="M24 12 26.5 21.5 36 24 26.5 26.5 24 36 21.5 26.5 12 24 21.5 21.5Z" fill="#dce9ff"/>
  <path d="m24 12 2.5 9.5L24 24Z" fill="#ed5263"/>
  <path d="m24 24 12 0-9.5 2.5Z" fill="#80a9ff"/>
  <path d="m16.2 16.2 5.2 3.3L24 24l-4.5-2.6Zm15.6 0-3.3 5.2L24 24l2.6-4.5Zm0 15.6-5.2-3.3L24 24l4.5 2.6Zm-15.6 0 3.3-5.2L24 24l-2.6 4.5Z" fill="#80a9ff" opacity=".7"/>
  <circle cx="24" cy="24" r="2.1" fill="#101a2c" stroke="#e8f2ff" stroke-width=".9"/>
</svg>
